<?xml version="1.0" encoding="utf-8"?>
<!-- Generator: Adobe Illustrator 16.0.0, SVG Export Plug-In . SVG Version: 6.00 Build 0)  -->
<!DOCTYPE svg PUBLIC "-//W3C//DTD SVG 1.1//EN" "http://www.w3.org/Graphics/SVG/1.1/DTD/svg11.dtd">
<svg version="1.1" id="Livello_1" xmlns="http://www.w3.org/2000/svg" xmlns:xlink="http://www.w3.org/1999/xlink" x="0px" y="0px"
	 width="32px" height="32px" viewBox="0 0 32 32" enable-background="new 0 0 32 32" xml:space="preserve">
<g id="XMLID_31658_">
	<g>
		<path fill="#FF8900" stroke="#FF8900" stroke-width="0.4345" stroke-miterlimit="10" d="M27.813,3.124
			c0,0.457-0.182,0.914-0.274,1.279l-8.151,11.605l8.244,11.88c0.09,0.183,0.182,0.641,0.182,1.188c0,1.645-1.282,2.925-2.931,2.925
			c-0.916,0-2.015-0.549-2.381-1.462l0.092,0.182l-6.596-9.685l-6.502,9.777C8.855,31.543,8.122,32,7.114,32
			C5.466,32,4,30.813,4,29.167c0-0.549,0.275-1.097,0.366-1.279l8.244-11.88c-2.565-3.655-5.679-7.95-8.152-11.605
			C4.275,4.038,4,3.671,4,3.215C4,1.57,5.466,0.199,7.114,0.199c0.916,0,1.741,0.457,2.381,1.279l6.502,9.595l6.596-9.595
			l-0.092,0.184c0.366-0.914,1.465-1.462,2.381-1.462C26.531,0.199,27.813,1.478,27.813,3.124z"/>
	</g>
</g>
</svg>
